<?xml version="1.0" standalone="no"?><!DOCTYPE svg PUBLIC "-//W3C//DTD SVG 1.1//EN" "http://www.w3.org/Graphics/SVG/1.1/DTD/svg11.dtd"><svg t="1591703283513" class="icon" viewBox="0 0 1024 1024" version="1.1" xmlns="http://www.w3.org/2000/svg" p-id="3517" xmlns:xlink="http://www.w3.org/1999/xlink" width="64" height="64"><defs><style type="text/css"></style></defs><path d="M85.33504 834.77504s136.53504-45.39904 290.13504-32.11264c153.6 13.2864 262.85568-2.49344 372.05504-55.74656 117.76-57.42592 186.02496-83.1744 197.97504-69.37088C957.44 691.3536 962.56 936.43776 926.72 939.57632l-822.61504 0.15872s-46.08-43.45856-18.76992-104.96z" fill="#ffffff" p-id="3518"></path><path d="M459.45856 776.42752a39.45984 39.45984 0 0 1-19.52256-5.21216c-12.80512-7.26528-20.07552-21.4784-20.07552-36.20352v-190.01344c0-14.7712 7.31136-29.0304 20.18304-36.2752a39.18848 39.18848 0 0 1 39.20384 0.21504l166.0672 95.87712c12.78976 7.38304 21.48864 20.84864 21.33504 35.61472a39.168 39.168 0 0 1-19.79392 33.85344l-167.60832 96.768a39.40864 39.40864 0 0 1-19.7888 5.376z m6.48704-221.21984v169.58464c0 0.32768 0.3584 0.5376 0.64 0.36864l146.8672-84.79232a0.43008 0.43008 0 0 0 0-0.7424L466.5856 554.83392a0.43008 0.43008 0 0 0-0.64 0.37376z" fill="#ffffff" p-id="3519"></path><path d="M604.16 939.52h-2.07872c0.71168 0 1.3824 0.14848 2.07872 0.21504v-0.21504zM604.16 985.6v-0.21504c-0.69632 0.06656-1.36704 0.21504-2.07872 0.21504H604.16zM790.18496 939.52v0.00512l0.05632-0.00512zM790.18496 985.6h0.05632l-0.05632-0.00512z" fill="#ffffff" p-id="3520"></path><path d="M790.24128 985.6H862.72c56.55552 0 102.4-45.84448 102.4-102.4v-486.4c0-56.55552-45.84448-102.4-102.4-102.4h-296.06912l132.70528-159.744a23.04 23.04 0 1 0-35.44576-29.44512L508.29312 292.53632c-0.49152 0.5888-0.83456 1.24416-1.2544 1.86368h-35.86048c-0.256-0.37888-0.43008-0.78848-0.71168-1.152l-185.27232-241.8688a23.04 23.04 0 0 0-36.5824 28.02176L413.30176 294.4H168.96c-56.55552 0-102.4 45.84448-102.4 102.4v486.4c0 56.55552 45.84448 102.4 102.4 102.4h433.12128v-46.08H168.96c-31.104 0-56.32-25.216-56.32-56.32v-486.4c0-31.104 25.216-56.32 56.32-56.32h693.76c31.104 0 56.32 25.216 56.32 56.32v486.4c0 31.104-25.216 56.32-56.32 56.32h-72.47872" fill="#ffffff" p-id="3521"></path><path d="M579.52256 962.56c0 12.7232 10.10176 23.04 22.55872 23.04 0.71168 0 1.3824-0.14848 2.07872-0.21504 11.4688-1.09056 20.48-10.8288 20.48-22.82496s-9.0112-21.73952-20.48-22.82496c-0.69632-0.06656-1.36704-0.21504-2.07872-0.21504-12.46208 0-22.55872 10.3168-22.55872 23.04zM812.8 962.56c0-12.7232-10.10176-23.04-22.55872-23.04l-0.0512 0.00512c-12.43136 0.03072-22.50752 10.32704-22.50752 23.03488s10.07104 23.00416 22.50752 23.03488l0.0512 0.00512c12.45696 0 22.55872-10.3168 22.55872-23.04z" fill="#ffffff" p-id="3522"></path></svg>