<?xml version="1.0" standalone="no"?><!DOCTYPE svg PUBLIC "-//W3C//DTD SVG 1.1//EN" "http://www.w3.org/Graphics/SVG/1.1/DTD/svg11.dtd"><svg t="1591695280531" class="icon" viewBox="0 0 2048 1024" version="1.1" xmlns="http://www.w3.org/2000/svg" p-id="1199" width="128" height="64" xmlns:xlink="http://www.w3.org/1999/xlink"><defs><style type="text/css"></style></defs><path d="M1493.4016 582.4512l-16.384 72.9088c-5.7344 29.4912 13.1072 58.1632 42.5984 64.7168 30.3104 6.5536 59.8016-12.288 67.1744-42.5984 6.5536-30.3104-12.288-60.6208-41.7792-67.1744-7.3728-1.6384-15.5648-1.6384-22.1184 0l-8.192 30.3104c6.5536-4.9152 14.7456-6.5536 23.7568-4.9152 16.384 3.2768 26.2144 19.6608 22.1184 36.0448-3.2768 16.384-19.6608 26.2144-36.0448 22.9376-15.5648-3.2768-25.3952-18.0224-22.9376-33.5872l18.0224-80.2816-26.2144 1.6384z m-34.4064 149.0944l27.8528-1.6384 3.2768-16.384c-15.5648-11.4688-19.6608-30.3104-19.6608-30.3104l-11.4688 48.3328zM308.8384 49.152h54.0672v54.0672h-54.0672zM393.216 49.152h54.0672v54.0672H393.216zM477.5936 49.152h54.0672v54.0672h-54.0672z" fill="#FFFFFF" p-id="1200"></path><path d="M147.456 968.2944h169.5744l-4.096-829.8496z" fill="#E1EAFF" p-id="1201"></path><path d="M1319.7312 973.04576H786.432c-2.4576 0-4.096-1.6384-4.096-4.096s1.6384-4.096 4.096-4.096h533.2992c22.1184 0 40.1408-18.8416 40.1408-40.96v-734.8224c0-22.9376-18.0224-40.96-40.1408-40.96h-958.464c-22.1184 0-40.1408 18.8416-40.1408 40.96v734.8224c0 22.9376 18.0224 40.96 40.1408 40.96h72.0896c2.4576 0 4.096 1.6384 4.096 4.096s-1.6384 4.096-4.096 4.096h-72.0896c-26.2144 0-48.3328-22.1184-48.3328-49.152v-734.8224c0-27.0336 21.2992-49.152 48.3328-49.152h958.464c26.2144 0 48.3328 22.1184 48.3328 49.152v734.8224c0 27.0336-22.1184 49.152-48.3328 49.152z" fill="#3370FF" p-id="1202"></path><path d="M411.2384 878.01856h135.9872c11.4688 0 21.2992-9.0112 21.2992-21.2992v-552.1408c0-11.4688-9.0112-21.2992-21.2992-21.2992H411.2384c-11.4688 0-21.2992 9.0112-21.2992 21.2992v552.1408c0 12.288 9.0112 21.2992 21.2992 21.2992M660.2752 878.01856h605.3888c10.6496 0 19.6608-9.0112 19.6608-19.6608v-554.5984c0-10.6496-9.0112-19.6608-19.6608-19.6608H660.2752c-10.6496 0-19.6608 9.0112-19.6608 19.6608v554.5984c0 10.6496 9.0112 19.6608 19.6608 19.6608" fill="#BACEFD" p-id="1203"></path><path d="M1180.4672 797.73696H1163.264c-2.4576 0-4.096-1.6384-4.096-4.096s1.6384-4.096 4.096-4.096h17.2032c4.096 0 8.192-2.4576 9.8304-7.3728 0.8192-2.4576 3.2768-3.2768 4.9152-2.4576 2.4576 0.8192 3.2768 3.2768 2.4576 4.9152-2.4576 8.192-9.0112 13.1072-17.2032 13.1072z m-51.6096 0h-35.2256c-2.4576 0-4.096-1.6384-4.096-4.096s1.6384-4.096 4.096-4.096h35.2256c2.4576 0 4.096 1.6384 4.096 4.096s-1.6384 4.096-4.096 4.096z m-69.632 0H1024c-2.4576 0-4.096-1.6384-4.096-4.096s1.6384-4.096 4.096-4.096h35.2256c2.4576 0 4.096 1.6384 4.096 4.096s-1.6384 4.096-4.096 4.096z m-69.632 0h-35.2256c-2.4576 0-4.096-1.6384-4.096-4.096s1.6384-4.096 4.096-4.096h35.2256c2.4576 0 4.096 1.6384 4.096 4.096s-1.6384 4.096-4.096 4.096z m-69.632 0H884.736c-2.4576 0-4.096-1.6384-4.096-4.096s1.6384-4.096 4.096-4.096h35.2256c2.4576 0 4.096 1.6384 4.096 4.096s-2.4576 4.096-4.096 4.096z m-69.632 0h-35.2256c-2.4576 0-4.096-1.6384-4.096-4.096s1.6384-4.096 4.096-4.096h35.2256c2.4576 0 4.096 1.6384 4.096 4.096s-2.4576 4.096-4.096 4.096z m-69.632 0H745.472c-6.5536 0-12.288-3.2768-15.5648-8.192-0.8192-2.4576-0.8192-4.9152 1.6384-5.7344 1.6384-0.8192 4.096-0.8192 5.7344 1.6384 1.6384 3.2768 4.9152 4.9152 8.192 4.9152h35.2256c2.4576 0 4.096 1.6384 4.096 4.096s-2.4576 3.2768-4.096 3.2768z m-49.152-40.96c-2.4576 0-4.096-1.6384-4.096-4.096v-35.2256c0-2.4576 1.6384-4.096 4.096-4.096s4.096 1.6384 4.096 4.096v35.2256c0 2.4576-1.6384 4.096-4.096 4.096z m462.848-3.2768c-2.4576 0-4.096-1.6384-4.096-4.096v-35.2256c0-2.4576 1.6384-4.096 4.096-4.096s4.096 1.6384 4.096 4.096v35.2256c0 2.4576-1.6384 4.096-4.096 4.096z m-462.848-66.3552c-2.4576 0-4.096-1.6384-4.096-4.096v-35.2256c0-2.4576 1.6384-4.096 4.096-4.096s4.096 1.6384 4.096 4.096v35.2256c0 2.4576-1.6384 4.096-4.096 4.096z m462.848-3.2768c-2.4576 0-4.096-1.6384-4.096-4.096v-35.2256c0-2.4576 1.6384-4.096 4.096-4.096s4.096 1.6384 4.096 4.096v35.2256c0 1.6384-1.6384 4.096-4.096 4.096z m-462.848-66.3552c-2.4576 0-4.096-1.6384-4.096-4.096v-35.2256c0-2.4576 1.6384-4.096 4.096-4.096s4.096 1.6384 4.096 4.096v35.2256c0 2.4576-1.6384 4.096-4.096 4.096z m462.848-3.2768c-2.4576 0-4.096-1.6384-4.096-4.096v-35.2256c0-2.4576 1.6384-4.096 4.096-4.096s4.096 1.6384 4.096 4.096v35.2256c0 1.6384-1.6384 4.096-4.096 4.096z m-462.848-66.3552c-2.4576 0-4.096-1.6384-4.096-4.096v-35.2256c0-2.4576 1.6384-4.096 4.096-4.096s4.096 1.6384 4.096 4.096v35.2256c0 2.4576-1.6384 4.096-4.096 4.096z m462.848-3.2768c-2.4576 0-4.096-1.6384-4.096-4.096v-35.2256c0-2.4576 1.6384-4.096 4.096-4.096s4.096 1.6384 4.096 4.096v35.2256c0 1.6384-1.6384 4.096-4.096 4.096z m-462.848-66.3552c-2.4576 0-4.096-1.6384-4.096-4.096v-35.2256c0-2.4576 1.6384-4.096 4.096-4.096s4.096 1.6384 4.096 4.096v35.2256c0 2.4576-1.6384 4.096-4.096 4.096z m462.848-3.2768c-2.4576 0-4.096-1.6384-4.096-4.096v-35.2256c0-2.4576 1.6384-4.096 4.096-4.096s4.096 1.6384 4.096 4.096v35.2256c0 1.6384-1.6384 4.096-4.096 4.096z m-462.848-66.3552c-2.4576 0-4.096-1.6384-4.096-4.096v-23.7568c0-4.9152 1.6384-9.8304 5.7344-13.1072 1.6384-1.6384 4.096-1.6384 5.7344 0s1.6384 4.096 0 5.7344-3.2768 4.096-3.2768 7.3728v23.7568c0 2.4576-1.6384 4.096-4.096 4.096z m462.848-4.096c-2.4576 0-4.096-1.6384-4.096-4.096v-19.6608c0-3.2768-1.6384-7.3728-4.9152-9.0112-1.6384-0.8192-2.4576-3.2768-1.6384-5.7344 0.8192-1.6384 3.2768-2.4576 5.7344-1.6384 5.7344 3.2768 9.0112 9.0112 9.0112 15.5648v19.6608c0 3.2768-1.6384 4.9152-4.096 4.9152z m-41.7792-33.5872h-35.2256c-2.4576 0-4.096-1.6384-4.096-4.096s1.6384-4.096 4.096-4.096h35.2256c2.4576 0 4.096 1.6384 4.096 4.096s-1.6384 4.096-4.096 4.096z m-69.632 0H1048.576c-2.4576 0-4.096-1.6384-4.096-4.096s1.6384-4.096 4.096-4.096h35.2256c2.4576 0 4.096 1.6384 4.096 4.096s-2.4576 4.096-4.9152 4.096z m-69.632 0h-35.2256c-2.4576 0-4.096-1.6384-4.096-4.096s1.6384-4.096 4.096-4.096h35.2256c2.4576 0 4.096 1.6384 4.096 4.096s-1.6384 4.096-4.096 4.096z m-69.632 0H909.312c-2.4576 0-4.096-1.6384-4.096-4.096s1.6384-4.096 4.096-4.096h35.2256c2.4576 0 4.096 1.6384 4.096 4.096s-2.4576 4.096-4.9152 4.096z m-69.632 0h-35.2256c-2.4576 0-4.096-1.6384-4.096-4.096s1.6384-4.096 4.096-4.096h35.2256c2.4576 0 4.096 1.6384 4.096 4.096s-1.6384 4.096-4.096 4.096z m-69.632 0H770.048c-2.4576 0-4.096-1.6384-4.096-4.096s1.6384-4.096 4.096-4.096h35.2256c2.4576 0 4.096 1.6384 4.096 4.096s-2.4576 4.096-4.9152 4.096z" fill="#FFFFFF" p-id="1204"></path><path d="M477.5936 76.02176c0 14.7456 12.288 27.0336 27.0336 27.0336s27.0336-12.288 27.0336-27.0336-12.288-27.0336-27.0336-27.0336-27.0336 12.288-27.0336 27.0336" fill="#F54A45" p-id="1205"></path><path d="M393.216 76.02176c0 14.7456 12.288 27.0336 27.0336 27.0336s27.0336-12.288 27.0336-27.0336-12.288-27.0336-27.0336-27.0336-27.0336 12.288-27.0336 27.0336" fill="#FFC400" p-id="1206"></path><path d="M308.8384 76.02176c0 14.7456 12.288 27.0336 27.0336 27.0336s27.0336-12.288 27.0336-27.0336-12.288-27.0336-27.0336-27.0336-27.0336 12.288-27.0336 27.0336" fill="#34C724" p-id="1207"></path><path d="M1270.5792 394.69056h-95.8464c-2.4576 0-4.096-1.6384-4.096-4.096s1.6384-4.096 4.096-4.096h95.8464c2.4576 0 4.096 1.6384 4.096 4.096s-1.6384 4.096-4.096 4.096zM1270.5792 434.83136h-95.8464c-2.4576 0-4.096-1.6384-4.096-4.096s1.6384-4.096 4.096-4.096h95.8464c2.4576 0 4.096 1.6384 4.096 4.096s-1.6384 4.096-4.096 4.096zM1270.5792 474.15296h-48.3328c-2.4576 0-4.096-1.6384-4.096-4.096s1.6384-4.096 4.096-4.096h48.3328c2.4576 0 4.096 1.6384 4.096 4.096s-1.6384 4.096-4.096 4.096z" fill="#FFFFFF" p-id="1208"></path><path d="M312.9344 212.00896H1368.064v-51.6096c0-12.288-9.8304-22.1184-22.1184-22.1184H335.0528c-12.288 0-22.1184 9.8304-22.1184 22.1184v51.6096z" fill="#82A7FC" p-id="1209"></path><path d="M1626.9312 289.83296s-13.9264 61.44-40.1408 94.208 20.48 78.6432 20.48 78.6432-5.7344 41.7792-72.0896 39.3216c-66.3552-3.2768-75.3664-51.6096-75.3664-51.6096s70.4512-31.9488 49.152-47.5136c-21.2992-16.384-34.4064-35.2256-23.7568-103.2192s59.8016-73.728 101.5808-63.8976c40.96 8.192 40.1408 54.0672 40.1408 54.0672" fill="#805000" p-id="1210"></path><path d="M1540.9152 505.28256h-6.5536c-68.8128-3.2768-79.4624-54.8864-79.4624-54.8864 0-1.6384 0.8192-4.096 2.4576-4.9152 20.48-9.0112 49.9712-26.2144 50.7904-36.864 0-0.8192 0-2.4576-2.4576-4.096-24.576-18.8416-36.0448-40.96-24.576-107.3152 4.096-27.8528 15.5648-47.5136 32.768-58.9824 18.0224-12.288 43.4176-14.7456 73.728-8.192 44.2368 9.8304 43.4176 58.9824 43.4176 59.8016v0.8192c-0.8192 2.4576-14.7456 62.2592-40.96 95.8464-23.7568 29.4912 19.6608 72.9088 19.6608 72.9088 0.8192 0.8192 1.6384 2.4576 0.8192 3.2768 0 0-6.5536 42.5984-69.632 42.5984z m-77.0048-53.248c3.2768 10.6496 18.0224 43.4176 71.2704 45.056 54.0672 2.4576 64.7168-26.2144 67.1744-33.5872-8.192-9.0112-45.056-50.7904-18.8416-82.7392 24.576-30.3104 38.5024-86.016 39.3216-91.7504 0-4.9152-0.8192-42.5984-37.6832-50.7904-18.8416-4.096-46.6944-6.5536-67.1744 7.3728-15.5648 10.6496-25.3952 28.672-29.4912 54.0672-11.4688 68.8128 2.4576 85.1968 22.1184 99.9424 4.9152 4.096 5.7344 9.0112 5.7344 11.4688-1.6384 15.5648-38.5024 34.4064-52.4288 40.96z m163.0208-162.2016z" fill="#5C3A00" p-id="1211"></path><path d="M1758.8224 538.86976c25.3952 49.9712 108.9536 173.6704 86.8352 207.2576s-177.7664 148.2752-177.7664 148.2752l14.7456-145.8176 38.5024-30.3104-22.9376-65.536 15.5648-157.2864c-0.8192-0.8192 29.4912 13.9264 45.056 43.4176" fill="#795101" p-id="1212"></path><path d="M1667.072 898.49856c-0.8192 0-1.6384 0-1.6384-0.8192-1.6384-0.8192-2.4576-2.4576-1.6384-4.096l14.7456-145.8176c0-0.8192 0.8192-2.4576 1.6384-2.4576l36.0448-28.672-21.2992-63.0784v-1.6384l15.5648-157.2864c0-1.6384 0.8192-2.4576 2.4576-3.2768 0.8192-0.8192 2.4576-0.8192 4.096 0s31.9488 15.5648 47.5136 45.8752c5.7344 11.4688 13.9264 25.3952 23.7568 42.5984 36.0448 62.2592 81.1008 140.0832 62.2592 168.7552-22.1184 33.5872-172.8512 144.9984-179.4048 149.9136-2.4576-0.8192-3.2768 0-4.096 0z m18.8416-147.456l-13.9264 134.3488c31.1296-22.9376 150.7328-113.8688 169.5744-141.7216 15.5648-23.7568-31.9488-105.6768-63.0784-159.744-9.8304-17.2032-18.0224-31.9488-23.7568-42.5984-10.6496-20.48-29.4912-33.5872-38.5024-39.3216l-15.5648 150.7328 22.1184 64.7168c0.8192 1.6384 0 3.2768-1.6384 4.9152l-35.2256 28.672z" fill="#623800" p-id="1213"></path><path d="M1626.9312 289.83296s31.1296 12.288 19.6608 39.3216-37.6832 16.384-37.6832 16.384l18.0224-55.7056z" fill="#805000" p-id="1214"></path><path d="M1620.3776 351.27296c-4.9152 0-9.8304-0.8192-13.9264-2.4576-1.6384-0.8192-3.2768-3.2768-2.4576-4.9152l18.0224-54.8864c0-0.8192 0.8192-1.6384 2.4576-2.4576 0.8192-0.8192 2.4576-0.8192 3.2768 0 0.8192 0 17.2032 6.5536 22.9376 21.2992 3.2768 7.3728 2.4576 15.5648-0.8192 23.7568-6.5536 14.7456-18.8416 19.6608-29.4912 19.6608z m-6.5536-9.0112c6.5536 1.6384 21.2992 2.4576 28.672-14.7456 2.4576-6.5536 3.2768-12.288 0.8192-17.2032-3.2768-7.3728-9.8304-12.288-14.7456-14.7456l-14.7456 46.6944z" fill="#5C3A00" p-id="1215"></path><path d="M1667.072 253.78816c0 3.2768-22.9376 113.8688-113.0496 90.9312s-85.1968-209.7152 32.768-182.6816c36.864 9.0112 83.5584 22.9376 80.2816 91.7504" fill="#1E232A" p-id="1216"></path><path d="M1576.96 352.09216c-8.192 0-15.5648-0.8192-24.576-3.2768-52.4288-13.1072-74.5472-77.824-62.2592-129.4336 9.0112-37.6832 39.3216-73.728 96.6656-60.6208 31.1296 7.3728 87.6544 19.6608 83.5584 95.8464 0 4.9152-12.288 56.5248-47.5136 82.7392-13.1072 9.8304-28.672 14.7456-45.8752 14.7456z m-12.288-188.416c-32.768 0-57.344 20.48-65.536 57.344-11.4688 47.5136 9.0112 108.1344 55.7056 119.6032 23.7568 5.7344 44.2368 2.4576 62.2592-9.0112 35.2256-24.576 45.8752-77.0048 46.6944-78.6432 3.2768-63.0784-36.864-77.824-77.824-86.8352-8.192-1.6384-14.7456-2.4576-21.2992-2.4576z m102.4 90.112z" fill="#1E232A" p-id="1217"></path><path d="M1523.712 290.65216s68.8128 28.672 49.9712 45.8752c-18.8416 17.2032-58.9824-24.576-124.5184 0l-176.128 80.2816 138.4448 18.0224-52.4288 144.9984s-329.3184-99.9424-267.8784-171.2128 457.1136-259.6864 469.4016-241.664c11.4688 17.2032-58.1632 72.0896-63.8976 62.2592-9.0112-15.5648 91.7504-61.44 98.304-43.4176 8.192 22.1184-75.3664 81.92-83.5584 67.9936-9.0112-14.7456 83.5584-49.152 92.5696-29.4912 9.8304 20.48-80.2816 66.3552-80.2816 66.3552" fill="#805000" p-id="1218"></path><path d="M1358.2336 584.74496h-0.8192c-10.6496-3.2768-257.2288-78.6432-276.8896-147.456-3.2768-10.6496-0.8192-21.2992 7.3728-30.3104 38.5024-45.056 194.9696-125.3376 241.664-149.0944 96.6656-48.3328 205.6192-96.6656 227.7376-95.0272 3.2768 0 4.9152 1.6384 6.5536 3.2768 3.2768 4.096 2.4576 10.6496-0.8192 17.2032 10.6496-3.2768 19.6608-4.9152 25.3952-4.096 6.5536 0.8192 9.0112 4.096 10.6496 6.5536 3.2768 8.192-3.2768 18.8416-13.1072 30.3104h5.7344c9.0112 0 14.7456 3.2768 17.2032 8.192 9.8304 18.8416-47.5136 52.4288-74.5472 66.3552 15.5648 7.3728 45.056 22.9376 47.5136 37.6832 0.8192 3.2768 0 7.3728-4.9152 12.288-9.8304 9.0112-22.9376 4.9152-39.3216 0.8192-21.2992-5.7344-49.9712-13.9264-86.016 0l-163.0208 74.5472 124.5184 16.384c0.8192 0 2.4576 0.8192 3.2768 1.6384 0.8192 0.8192 0.8192 2.4576 0 3.2768l-52.4288 144.9984c-2.4576 0.8192-3.2768 2.4576-5.7344 2.4576z m197.4272-414.5152c-36.0448 0-400.5888 170.3936-462.0288 241.664-5.7344 7.3728-8.192 14.7456-5.7344 22.9376 17.2032 59.8016 236.7488 130.2528 267.8784 140.9024l49.152-136.8064-133.5296-17.2032c-1.6384 0-3.2768-1.6384-3.2768-3.2768s0.8192-3.2768 2.4576-4.096l176.128-80.2816c39.3216-14.7456 69.632-6.5536 91.7504-0.8192 16.384 4.096 25.3952 6.5536 31.9488 1.6384 2.4576-1.6384 2.4576-3.2768 1.6384-4.096-1.6384-10.6496-31.9488-27.0336-50.7904-34.4064-1.6384-0.8192-2.4576-1.6384-2.4576-3.2768s0.8192-3.2768 2.4576-4.096c41.7792-21.2992 83.5584-49.9712 78.6432-59.8016-1.6384-3.2768-10.6496-4.9152-23.7568-2.4576-14.7456 13.9264-33.5872 26.2144-45.056 31.9488-4.9152 2.4576-18.8416 9.0112-23.7568 0-0.8192-1.6384-2.4576-4.9152 0.8192-9.8304 6.5536-11.4688 38.5024-25.3952 64.7168-30.3104 14.7456-13.9264 19.6608-24.576 18.0224-28.672 0-0.8192-1.6384-0.8192-3.2768-1.6384-7.3728-0.8192-18.8416 2.4576-31.9488 6.5536-15.5648 19.6608-45.056 40.96-55.7056 41.7792-3.2768 0-5.7344-1.6384-6.5536-3.2768-1.6384-2.4576-2.4576-5.7344 0.8192-11.4688 7.3728-10.6496 31.9488-24.576 55.7056-33.5872 0.8192-1.6384 2.4576-3.2768 3.2768-4.096 3.2768-5.7344 4.9152-9.8304 4.096-12.288-0.8192-1.6384-1.6384-1.6384-1.6384-1.6384z m3.2768 58.9824c-1.6384 0.8192-3.2768 0.8192-4.9152 1.6384-27.0336 9.0112-40.1408 19.6608-40.1408 22.1184 4.096 1.6384 22.9376-5.7344 45.056-23.7568z m-22.1184-27.8528c-16.384 7.3728-31.1296 17.2032-36.0448 23.7568 0 0.8192-0.8192 0.8192-0.8192 1.6384 5.7344-0.8192 22.9376-12.288 36.864-25.3952z" fill="#5C3A00" p-id="1219"></path><path d="M1825.9968 217.74336c-2.4576 0-4.096-1.6384-4.096-4.096s1.6384-4.096 4.096-4.096l73.728-3.2768c2.4576 0 4.096 1.6384 4.096 4.096s-1.6384 4.096-4.096 4.096l-73.728 3.2768c0.8192 0 0 0 0 0zM1797.3248 162.85696c-0.8192 0-1.6384 0-2.4576-0.8192-1.6384-1.6384-1.6384-4.096 0-5.7344l49.9712-52.4288c1.6384-1.6384 4.096-1.6384 5.7344 0s1.6384 4.096 0 5.7344l-49.9712 52.4288c-0.8192 0-1.6384 0.8192-3.2768 0.8192zM1812.8896 189.07136c-1.6384 0-3.2768-1.6384-4.096-3.2768-0.8192-2.4576 0.8192-4.096 3.2768-4.9152l39.3216-9.0112c2.4576-0.8192 4.096 0.8192 4.9152 3.2768 0.8192 2.4576-0.8192 4.096-3.2768 4.9152l-39.3216 9.0112h-0.8192z" fill="#3370FF" p-id="1220"></path><path d="M1751.4496 166.13376c0 39.3216-31.9488 71.2704-71.2704 71.2704s-71.2704-31.9488-71.2704-71.2704 31.9488-71.2704 71.2704-71.2704c39.3216 0 71.2704 31.9488 71.2704 71.2704" fill="#1E232A" p-id="1221"></path><path d="M1680.1792 242.31936c-41.7792 0-75.3664-33.5872-75.3664-75.3664s33.5872-75.3664 75.3664-75.3664 75.3664 33.5872 75.3664 75.3664c0 40.96-33.5872 75.3664-75.3664 75.3664z m0-143.36c-36.864 0-67.1744 30.3104-67.1744 67.1744s30.3104 67.1744 67.1744 67.1744 67.1744-30.3104 67.1744-67.1744-29.4912-67.1744-67.1744-67.1744z" fill="#1E232A" p-id="1222"></path><path d="M1258.2912 856.71936l-34.4064 114.688h443.1872l8.192-114.688z" fill="#795101" p-id="1223"></path><path d="M1667.072 975.50336h-443.1872c-1.6384 0-2.4576-0.8192-3.2768-1.6384s-0.8192-2.4576-0.8192-3.2768l34.4064-114.688c0.8192-1.6384 2.4576-3.2768 4.096-3.2768h416.1536c0.8192 0 2.4576 0.8192 3.2768 1.6384 0.8192 0.8192 0.8192 1.6384 0.8192 3.2768l-8.192 114.688c0.8192 1.6384-0.8192 3.2768-3.2768 3.2768z m-437.4528-8.192H1662.976l7.3728-106.496H1261.568l-31.9488 106.496z" fill="#623800" p-id="1224"></path><path d="M1410.6624 434.83136s27.0336 3.2768 62.2592 7.3728c21.2992 2.4576 22.1184 31.1296 62.2592 37.6832 52.4288 9.0112 53.248-22.1184 71.2704-18.8416 66.3552 11.4688 106.496 32.768 106.496 32.768l-15.5648 157.2864-22.1184 203.9808h-416.1536l151.552-420.2496z" fill="#FFC400" p-id="1225"></path><path d="M1675.264 860.81536h-416.1536c-1.6384 0-2.4576-0.8192-3.2768-1.6384s-0.8192-2.4576-0.8192-4.096l152.3712-421.0688c0.8192-1.6384 2.4576-3.2768 4.096-2.4576 0 0 27.0336 3.2768 62.2592 7.3728 10.6496 1.6384 17.2032 8.192 23.7568 15.5648 8.192 9.0112 17.2032 18.8416 39.3216 22.9376 31.1296 4.9152 42.5984-4.096 51.6096-11.4688 5.7344-4.9152 11.4688-9.0112 19.6608-7.3728 65.536 11.4688 105.6768 31.9488 107.3152 32.768 1.6384 0.8192 2.4576 2.4576 2.4576 4.096l-15.5648 157.2864-22.9376 203.9808c-0.8192 2.4576-2.4576 4.096-4.096 4.096z m-410.4192-8.192H1671.168l22.1184-200.704 15.5648-154.8288c-9.8304-4.9152-47.5136-21.2992-102.4-31.1296-4.9152-0.8192-7.3728 1.6384-13.1072 5.7344-9.8304 8.192-23.7568 18.8416-58.1632 13.1072-24.576-4.096-35.2256-15.5648-44.2368-25.3952-5.7344-6.5536-10.6496-11.4688-18.0224-12.288-27.8528-3.2768-50.7904-6.5536-58.9824-7.3728l-149.0944 412.8768z" fill="#FFFFFF" p-id="1226"></path><path d="M1502.4128 660.93056c-2.4576 15.5648 7.3728 30.3104 22.9376 33.5872 16.384 3.2768 31.9488-6.5536 36.0448-22.9376 3.2768-16.384-6.5536-31.9488-22.1184-36.0448-8.192-1.6384-17.2032 0-23.7568 4.9152l7.3728-31.1296c7.3728-1.6384 14.7456-1.6384 22.1184 0.8192 30.3104 6.5536 49.152 36.864 41.7792 67.1744-6.5536 30.3104-36.864 49.152-67.1744 42.5984-29.4912-6.5536-47.5136-35.2256-42.5984-64.7168l16.384-72.9088 27.0336-2.4576-18.0224 81.1008z m-31.9488 22.1184s4.096 18.8416 19.6608 30.3104l-3.2768 16.384-27.0336 2.4576 10.6496-49.152z" fill="#FEF9EC" p-id="1227"></path><path d="M1758.0032 975.50336h-675.0208c-2.4576 0-4.096-1.6384-4.096-4.096s1.6384-4.096 4.096-4.096h675.0208c2.4576 0 4.096 1.6384 4.096 4.096s-1.6384 4.096-4.096 4.096z" fill="#3370FF" p-id="1228"></path><path d="M519.3728 370.11456H434.9952c-2.4576 0-4.096-1.6384-4.096-4.096s1.6384-4.096 4.096-4.096h84.3776c2.4576 0 4.096 1.6384 4.096 4.096s-1.6384 4.096-4.096 4.096zM519.3728 404.52096H434.9952c-2.4576 0-4.096-1.6384-4.096-4.096s1.6384-4.096 4.096-4.096h84.3776c2.4576 0 4.096 1.6384 4.096 4.096s-1.6384 4.096-4.096 4.096zM519.3728 438.92736H434.9952c-2.4576 0-4.096-1.6384-4.096-4.096s1.6384-4.096 4.096-4.096h84.3776c2.4576 0 4.096 1.6384 4.096 4.096s-1.6384 4.096-4.096 4.096z" fill="#FFFFFF" p-id="1229"></path></svg>